<svg width="49" height="40" viewBox="0 0 49 40" fill="none" xmlns="http://www.w3.org/2000/svg">
<path d="M14.1324 13.0191L8.99208 17.9391L23.1338 31.4748L48.4483 7.2452L43.3098 2.3252L23.1338 21.633L14.1324 13.0191Z" fill="#13345a"/>
<path d="M39.0526 34.7826C39.0526 35.7252 38.2204 36.5217 37.2356 36.5217H6.34653C5.36171 36.5217 4.52953 35.7252 4.52953 34.7826V5.21739C4.52953 4.27478 5.36171 3.47826 6.34653 3.47826H37.0684L39.9483 0.721739C39.1271 0.254855 38.1907 0.0057386 37.2356 0H6.34653C3.34848 0 0.895523 2.34783 0.895523 5.21739V34.7826C0.895523 37.6522 3.34848 40 6.34653 40H37.2356C40.2336 40 42.6866 37.6522 42.6866 34.7826V17.6887L39.0526 21.167V34.7826Z" fill="#13345a"/>
</svg>
