<svg width="155" height="68" viewBox="0 0 155 68" fill="none" xmlns="http://www.w3.org/2000/svg">
<path d="M129.295 0H10C4.47715 0 0 4.47715 0 10V58C0 63.5228 4.47714 68 9.99999 68H77.9739C80.5104 68 82.9521 67.0361 84.8047 65.3035L136.126 17.3035C142.751 11.1072 138.366 0 129.295 0Z" fill="#13345a"/>
<rect width="13.5821" height="9" fill="#13345a"/>
<rect y="58" width="11.4925" height="10" fill="#13345a"/>
<path d="M28.6012 21.8579L45.4693 32.2356C46.0361 32.5833 46.7693 32.7482 47.507 32.7482C48.2447 32.7482 48.9779 32.5833 49.5447 32.2356L66.4128 21.8579C67.5126 21.1804 68.5517 18.5454 66.5343 18.5454H28.482C26.4646 18.5454 27.5036 21.1804 28.6012 21.8579ZM66.9234 27.5323L49.5447 37.9048C48.78 38.3633 48.2447 38.4174 47.507 38.4174C46.7693 38.4174 46.234 38.3633 45.4693 37.9048C44.7047 37.4463 29.4266 28.2741 28.1784 27.5297C27.3012 27.0042 27.3102 27.6198 27.3102 28.0938V46.8788C27.3102 47.9606 28.5832 49.4545 29.5593 49.4545H65.5447C66.5208 49.4545 67.7938 47.9606 67.7938 46.8788V28.0963C67.7938 27.6224 67.8028 27.0068 66.9234 27.5323Z" fill="#29B6BD"/>
</svg>
