<svg width="155" height="68" viewBox="0 0 155 68" fill="none" xmlns="http://www.w3.org/2000/svg">
<path d="M129.295 0H10C4.47715 0 0 4.47715 0 10V58C0 63.5228 4.47714 68 9.99999 68H77.9739C80.5104 68 82.9521 67.0361 84.8047 65.3035L136.126 17.3035C142.751 11.1072 138.366 0 129.295 0Z" fill="#13345a"/>
<rect width="13.5821" height="9" fill="#13345a"/>
<rect y="58" width="11.4925" height="10" fill="#13345a"/>
<g clip-path="url(#clip0_2_5)">
<rect x="15.6716" y="4" width="62.6866" height="60" rx="5" fill="#13345a"/>
<path d="M63.3412 18.9468L27.9226 31.7887C25.996 32.3327 26.0454 34.1537 27.478 34.6031L36.345 37.2519L39.7535 47.2322C40.1734 48.3201 40.4945 48.7458 41.2107 48.7458C41.9517 48.7458 42.2234 48.4856 43.0138 47.8471C43.9029 47.043 45.2861 45.7659 47.4596 43.732L56.6971 50.2594C58.4014 51.1581 59.6116 50.6851 60.0562 48.7458L65.8358 21.3118C66.4286 18.9468 64.9714 18.2373 63.3412 18.9468ZM37.7528 36.6606L57.9321 24.5282C58.9201 23.8896 59.2411 24.5991 58.7966 25.0958L42.0505 39.5223L41.186 46.7355L37.7528 36.6606Z" fill="#29B6BD"/>
</g>
<defs>
<clipPath id="clip0_2_5">
<rect width="62.6866" height="60" fill="white" transform="translate(15.6716 4)"/>
</clipPath>
</defs>
</svg>
