<svg width="155" height="68" viewBox="0 0 155 68" fill="none" xmlns="http://www.w3.org/2000/svg">
<path d="M129.295 0H10C4.47715 0 0 4.47715 0 10V58C0 63.5228 4.47714 68 9.99999 68H77.9739C80.5104 68 82.9521 67.0361 84.8047 65.3035L136.126 17.3035C142.751 11.1072 138.366 0 129.295 0Z" fill="#13345a"/>
<rect width="13.5821" height="9" fill="#13345a"/>
<rect y="58" width="11.4925" height="10" fill="#13345a"/>
<path d="M54.0264 31.3925C54.0264 31.805 54.3919 32.1425 54.8387 32.1425C55.2856 32.1425 55.6511 31.805 55.6511 31.3925C55.6511 27.185 51.9467 23.765 47.3893 23.765C46.9425 23.765 46.577 24.1025 46.577 24.515C46.577 24.935 46.9425 25.265 47.3893 25.265C51.0531 25.265 54.0264 28.0175 54.0264 31.3925ZM47.3893 14.6C46.9425 14.6 46.577 14.9375 46.577 15.35C46.577 15.7625 46.9425 16.1 47.3893 16.1C56.5285 16.1 63.9616 22.9625 63.9616 31.3925C63.9616 31.805 64.3191 32.1425 64.774 32.1425C65.2208 32.1425 65.5864 31.805 65.5864 31.3925C65.5864 22.13 57.422 14.6 47.3893 14.6ZM55.3262 39.2975L54.262 39.83C52.4666 40.7375 51.0696 43.225 48.854 41.35L43.0689 35.9333L38.0715 31.3925C35.5607 28.43 38.3721 27.725 39.355 26.06L39.9318 25.085C40.5817 23.975 40.8172 22.73 40.6223 21.485C40.4355 20.24 39.8262 19.1075 38.8513 18.2075C37.6653 17.1125 36.0893 16.5125 34.4077 16.5125C32.7261 16.5125 31.142 17.1125 29.9559 18.2075L29.5416 18.5975C27.3482 20.6225 27.0964 24.11 28.8267 28.43C30.4596 32.555 33.7497 37.025 38.0715 41.015C44.6598 47.0975 51.9954 50.6 57.2596 50.6C59.3393 50.6 61.1021 50.0525 62.3531 48.8975L62.7756 48.5075C63.9535 47.42 64.6115 45.965 64.6197 44.3975C64.6115 42.8675 63.9372 41.3675 62.7756 40.295C60.8178 38.4875 57.7551 38.0825 55.3262 39.2975Z" fill="#29B6BD"/>
</svg>
